<svg aria-hidden="true" style="position: absolute; width: 0; height: 0; overflow: hidden;" version="1.1" xmlns="http://www.w3.org/2000/svg" xmlns:xlink="http://www.w3.org/1999/xlink">
<defs>
<symbol id="icon-Arrow" width="24" height="17" viewBox="0 0 10 18" fill="none" xmlns="http://www.w3.org/2000/svg">
<path d="M8.5348 0.514999L0.0498047 9L8.5348 17.485L9.9498 16.071L2.8778 9L9.9498 1.929L8.5348 0.514999Z" fill="#8A91AB"/>
</symbol>
<symbol id="icon-Bookmark" xmlns="http://www.w3.org/2000/svg" width="24" height="24" fill="none" viewBox="0 0 24 24"><path fill="#8A91AB" d="M5 4.5c0-.663.246-1.299.683-1.768A2.257 2.257 0 0 1 7.333 2h9.334c.618 0 1.212.263 1.65.732.437.47.683 1.105.683 1.768v16.875a.66.66 0 0 1-.083.321.603.603 0 0 1-.225.23.551.551 0 0 1-.599-.03L12 18.375l-6.093 3.52a.557.557 0 0 1-.824-.2.66.66 0 0 1-.083-.32V4.5Zm2.333-1.25c-.31 0-.606.132-.825.366a1.297 1.297 0 0 0-.341.884v15.708l5.51-3.103a.557.557 0 0 1 .646 0l5.51 3.103V4.5c0-.331-.123-.65-.341-.884a1.129 1.129 0 0 0-.825-.366H7.333Z"/></symbol>
<symbol id="icon-Bookmark2" xmlns="http://www.w3.org/2000/svg" width="40" height="40" fill="none" viewBox="0 0 40 40"><path fill="#8A91AB" d="M8.333 7.5c0-1.105.41-2.165 1.14-2.946.729-.782 1.718-1.22 2.75-1.22h15.555c1.031 0 2.02.438 2.75 1.22A4.323 4.323 0 0 1 31.667 7.5v28.126c0 .188-.048.373-.139.534-.09.162-.22.294-.375.383a.92.92 0 0 1-.997-.05L20 30.626 9.844 36.492a.919.919 0 0 1-.998.051 1.004 1.004 0 0 1-.374-.383 1.098 1.098 0 0 1-.139-.534V7.5Zm3.89-2.083c-.517 0-1.011.22-1.376.61-.364.39-.57.92-.57 1.473v26.18l9.184-5.171a.927.927 0 0 1 .539-.175c.192 0 .379.061.538.175l9.184 5.17V7.5c0-.552-.205-1.082-.57-1.473a1.88 1.88 0 0 0-1.374-.61H12.222Z"/></symbol>
<symbol id="icon-Bookmark_use" xmlns="http://www.w3.org/2000/svg" width="24" height="24" fill="none" viewBox="0 0 24 24"><path fill="#8A91AB" d="M5 4.5c0-.663.246-1.299.683-1.768A2.257 2.257 0 0 1 7.333 2h9.334c.618 0 1.212.263 1.65.732.437.47.683 1.105.683 1.768v16.875a.66.66 0 0 1-.083.321.603.603 0 0 1-.225.23.551.551 0 0 1-.599-.03L12 18.375l-6.093 3.52a.557.557 0 0 1-.824-.2.66.66 0 0 1-.083-.32V4.5Zm2.333-1.25c-.31 0-.606.132-.825.366a1.297 1.297 0 0 0-.341.884v15.708l5.51-3.103a.557.557 0 0 1 .646 0l5.51 3.103V4.5c0-.331-.123-.65-.341-.884a1.129 1.129 0 0 0-.825-.366H7.333Z"/><path fill="#8A91AB" d="M7.333 3.25c-.31 0-.606.132-.825.366a1.297 1.297 0 0 0-.341.884v15.708l5.51-3.103a.557.557 0 0 1 .646 0l5.51 3.103V4.5c0-.331-.123-.65-.341-.884a1.129 1.129 0 0 0-.825-.366H7.333Z"/></symbol>
<symbol id="icon-Arrow1" xmlns="http://www.w3.org/2000/svg" width="38" height="32" fill="none" viewBox="0 0 38 32"><path fill="#8A91AB" fill-rule="evenodd" d="M3.6 3.7a.5.5 0 0 1 .7-.1l3.6 2.7a.5.5 0 0 1-.6.8L4.693 5.145C7.7 21.508 22.971 29.405 35.91 27.008l.182.984C22.65 30.48 6.771 22.262 3.694 5.242L1.7 7.9a.5.5 0 0 1-.8-.6l2.7-3.6Z" clip-rule="evenodd"/></symbol>
</defs>


</svg>
